<svg width="850" height="171" viewBox="0 0 850 171" fill="none" xmlns="http://www.w3.org/2000/svg">
<path d="M715.886 170.502V1.50195H740.963L824.83 127.078V1.50195H849.907V170.502H824.83L740.963 44.8082V170.502H715.886Z" fill="#232329"/>
<path d="M578.653 170.502V1.50195H687.478V24.6221H603.375V72.036H673.284V95.1561H603.375V147.382H687.478V170.502H578.653Z" fill="#232329"/>
<path d="M518.409 170.502V1.50195H543.132V170.502H518.409Z" fill="#232329"/>
<path d="M314.814 170.502V1.50195H337.171L398.917 128.604L460.309 1.50195H482.902V170.385H459.481V54.7839L404.477 170.502H393.239L338.117 54.7839V170.502H314.814Z" fill="#232329"/>
<path d="M147.27 170.502L202.629 1.50195H238.233L293.593 170.502H267.924L216.942 16.2895H223.329L172.938 170.502H147.27ZM176.014 132.36V109.357H264.967V132.36H176.014Z" fill="#232329"/>
<path d="M0.378906 170.502V1.50195H53.7271C55.3042 1.50195 58.222 1.54108 62.4804 1.61932C66.8177 1.69755 70.9578 2.01051 74.9007 2.5582C88.2279 4.20125 99.4259 8.93482 108.495 16.7589C117.642 24.583 124.542 34.5195 129.195 46.5686C133.848 58.5395 136.174 71.6839 136.174 86.002C136.174 100.398 133.848 113.621 129.195 125.67C124.542 137.641 117.642 147.538 108.495 155.362C99.4259 163.108 88.2279 167.803 74.9007 169.446C70.9578 169.993 66.8177 170.306 62.4804 170.385C58.222 170.463 55.3042 170.502 53.7271 170.502H0.378906ZM25.6927 147.147H53.7271C56.4083 147.147 59.6021 147.069 63.3084 146.912C67.0148 146.756 70.2875 146.443 73.1264 145.973C81.8009 144.33 88.8193 140.614 94.1818 134.824C99.623 128.956 103.605 121.758 106.129 113.23C108.652 104.701 109.914 95.6256 109.914 86.002C109.914 76.0654 108.613 66.8721 106.011 58.4221C103.408 49.8939 99.3865 42.7739 93.9452 37.0624C88.5828 31.2725 81.6432 27.5952 73.1264 26.0304C70.2875 25.4827 66.9754 25.1698 63.1901 25.0915C59.4838 24.9351 56.3294 24.8568 53.7271 24.8568H25.6927V147.147Z" fill="#232329"/>
</svg>
