<svg width="110" height="22" viewBox="0 0 110 22" fill="none" xmlns="http://www.w3.org/2000/svg">
<path d="M92.4126 22V0H95.6515L106.483 16.3472V0H109.722V22H106.483L95.6515 5.6375V22H92.4126Z" fill="white"/>
<path d="M74.688 22V0H88.7435V3.00972H77.881V9.18194H86.9102V12.1917H77.881V18.9903H88.7435V22H74.688Z" fill="white"/>
<path d="M66.9072 22V0H70.1003V22H66.9072Z" fill="white"/>
<path d="M40.6113 22V0H43.4988L51.4738 16.5458L59.403 0H62.3211V21.9847H59.2961V6.93611L52.1919 22H50.7405L43.6211 6.93611V22H40.6113Z" fill="white"/>
<path d="M18.9722 22L26.1222 0H30.7208L37.8708 22H34.5555L27.9708 1.925H28.7958L22.2874 22H18.9722ZM22.6847 17.0347V14.0403H34.1736V17.0347H22.6847Z" fill="white"/>
<path d="M0 22V0H6.89028C7.09398 0 7.47083 0.00509283 8.02083 0.0152785C8.58102 0.0254629 9.11574 0.0662031 9.625 0.137499C11.3463 0.351388 12.7926 0.967592 13.9639 1.98611C15.1454 3.00463 16.0366 4.29815 16.6375 5.86667C17.2384 7.425 17.5389 9.13611 17.5389 11C17.5389 12.8741 17.2384 14.5954 16.6375 16.1639C16.0366 17.7222 15.1454 19.0106 13.9639 20.0292C12.7926 21.0375 11.3463 21.6486 9.625 21.8625C9.11574 21.9338 8.58102 21.9745 8.02083 21.9847C7.47083 21.9949 7.09398 22 6.89028 22H0ZM3.26944 18.9597H6.89028C7.23657 18.9597 7.64907 18.9495 8.12778 18.9292C8.60648 18.9088 9.02917 18.8681 9.39583 18.8069C10.5162 18.5931 11.4227 18.1093 12.1153 17.3556C12.8181 16.5917 13.3324 15.6546 13.6583 14.5444C13.9843 13.4343 14.1472 12.2528 14.1472 11C14.1472 9.70648 13.9792 8.50972 13.6431 7.40972C13.3069 6.29954 12.7875 5.37268 12.0847 4.62917C11.3921 3.87546 10.4958 3.39676 9.39583 3.19306C9.02917 3.12176 8.60139 3.08102 8.1125 3.07083C7.6338 3.05046 7.22639 3.04028 6.89028 3.04028H3.26944V18.9597Z" fill="white"/>
</svg>
