<svg width="262" height="256" viewBox="0 0 262 256" fill="none" xmlns="http://www.w3.org/2000/svg">
<path d="M131 128.5C202.906 128.5 261.228 186.657 261.497 258.5H246.777C246.508 194.787 194.777 143.22 131 143.22C67.2232 143.22 15.492 194.787 15.2227 258.5H0.50293C0.77241 186.657 59.0936 128.5 131 128.5ZM131 159.94C185.543 159.94 229.787 204.02 230.057 258.5H215.337C215.068 212.151 177.413 174.66 131 174.66C84.5871 174.66 46.9322 212.151 46.6631 258.5H31.9434C32.2126 204.02 76.4575 159.94 131 159.94ZM131 191.38C168.179 191.38 198.348 221.384 198.617 258.5H183.896C183.628 229.515 160.048 206.1 131 206.1C101.951 206.1 78.3719 229.515 78.1035 258.5H63.3828C63.6516 221.384 93.8213 191.38 131 191.38ZM15.2227 -2.5C15.492 61.2136 67.2232 112.78 131 112.78C194.777 112.78 246.508 61.2136 246.777 -2.5H261.497C261.228 69.3432 202.906 127.5 131 127.5C59.0936 127.5 0.772411 69.3432 0.50293 -2.5H15.2227ZM46.6631 -2.5C46.9322 43.8496 84.5871 81.3398 131 81.3398C177.413 81.3398 215.068 43.8496 215.337 -2.5H230.057C229.787 51.9792 185.543 96.0596 131 96.0596C76.4575 96.0596 32.2126 51.9792 31.9434 -2.5H46.6631ZM78.1035 -2.5C78.3719 26.4856 101.951 49.9004 131 49.9004C160.048 49.9004 183.628 26.4856 183.896 -2.5H198.617C198.348 34.6153 168.179 64.6201 131 64.6201C93.8213 64.6201 63.6516 34.6153 63.3828 -2.5H78.1035Z" fill="#0E0E10" stroke="#1C1C21"/>
</svg>
