<svg width="17" height="16" viewBox="0 0 17 16" fill="none" xmlns="http://www.w3.org/2000/svg">
<path d="M6.89691 0.741354C7.47643 -0.24712 8.90541 -0.247121 9.48493 0.741353L11.1038 3.50258C11.3152 3.86331 11.6677 4.11939 12.0761 4.20905L15.2025 4.89539C16.3216 5.14109 16.7632 6.50013 16.0022 7.35674L13.8764 9.74961C13.5987 10.0622 13.464 10.4766 13.505 10.8927L13.8183 14.0781C13.9305 15.2184 12.7744 16.0584 11.7246 15.5993L8.79187 14.317C8.40875 14.1494 7.97309 14.1494 7.58996 14.317L4.65729 15.5993C3.60744 16.0584 2.45136 15.2184 2.56353 14.0781L2.87688 10.8927C2.91781 10.4766 2.78319 10.0622 2.50547 9.74961L0.37963 7.35674C-0.381385 6.50013 0.0601948 5.14109 1.17937 4.89539L4.3057 4.20905C4.71413 4.11939 5.06659 3.86331 5.27807 3.50258L6.89691 0.741354Z" fill="#FFCE22"/>
</svg>
